<?xml version="1.0" encoding="utf-8"?>
<!-- Checklist icon by Arthur Shlain from Usefulicons.com -->
<svg xmlns="http://www.w3.org/2000/svg" xmlns:xlink="http://www.w3.org/1999/xlink" xml:space="preserve" version="1.1" x="0px" y="0px" viewBox="0 0 100 100" width="400px" height="400px"><path d="M90,20C90,17.239,87.761,15,85,15S80,17.239,80,20L80,25L90,25L90,20Z" stroke="none"></path><path d="M80,30L80,80L85,90L90,80L90,30Z" stroke="none"></path><path d="M40,30L60,30L60,35L40,35L40,30Z" stroke="none"></path><path d="M40,45L60,45L60,50L40,50L40,45Z" stroke="none"></path><path d="M40,60L60,60L60,65L40,65L40,60Z" stroke="none"></path><path d="M65,15L55,15C55,12.239,52.761,10,50,10L30,10C27.239,10,25,12.239,25,15L15,15C12.239,15,10,17.239,10,20L10,85C10,87.761,12.239,90,15,90L65,90C67.761,90,70,87.761,70,85L70,20C70,17.239,67.761,15,65,15ZM65,65C65,70.523,60.523,75,55,75C55,80.523,50.523,85,45,85L15,85L15,20L30,20C30,22.761,32.239,25,35,25L45,25C47.761,25,50,22.761,50,20L65,20L65,65Z" stroke="none"></path><path d="M25,36.464L22.5,33.964L18.965,37.5L25,43.536L36.035,32.5L32.5,28.964Z" stroke="none"></path><path d="M25,51.464L22.5,48.964L18.965,52.5L25,58.536L36.035,47.5L32.5,43.964Z" stroke="none"></path><path d="M25,66.464L22.5,63.964L18.965,67.5L25,73.536L36.035,62.5L32.5,58.964Z" stroke="none"></path></svg>